inDegrees=no
num_controls=7
num_derivatives=13
num_iterations=127
num_multipliers=7
num_parameters=0
num_slacks=7
num_states=26
objective=0.469779
objective_accelerations=0.062657
objective_balance=0.002058
objective_effort=0.020068
objective_height=0.375430
objective_ligament=0.009566
solver_duration=2014.417813
status=Solve_Succeeded
success=true
DataType=double
version=3
OpenSimVersion=4.5
endheader
time	/jointset/ground_pelvis/pelvis_tilt/value	/jointset/ground_pelvis/pelvis_tx/value	/jointset/ground_pelvis/pelvis_ty/value	/jointset/hip_l/hip_flexion_l/value	/jointset/hip_l/hip_adduction_l/value	/jointset/hip_l/hip_rotation_l/value	/jointset/back/lumbar_extension/value	/jointset/patellofemoral_l/patellar_flexion_l/value	/jointset/knee_l/knee_flexion_l/value	/jointset/knee_l/knee_adduction_l/value	/jointset/knee_l/knee_rotation_l/value	/jointset/ankle_l/ankle_angle_l/value	/jointset/subtalar_l/subtalar_angle_l/value	/jointset/ground_pelvis/pelvis_tilt/speed	/jointset/ground_pelvis/pelvis_tx/speed	/jointset/ground_pelvis/pelvis_ty/speed	/jointset/hip_l/hip_flexion_l/speed	/jointset/hip_l/hip_adduction_l/speed	/jointset/hip_l/hip_rotation_l/speed	/jointset/back/lumbar_extension/speed	/jointset/patellofemoral_l/patellar_flexion_l/speed	/jointset/knee_l/knee_flexion_l/speed	/jointset/knee_l/knee_adduction_l/speed	/jointset/knee_l/knee_rotation_l/speed	/jointset/ankle_l/ankle_angle_l/speed	/jointset/subtalar_l/subtalar_angle_l/speed	/forceset/tau_hip_flexion_l	/forceset/tau_hip_adduction_l	/forceset/tau_hip_rotation_l	/forceset/tau_knee_flexion_l	/forceset/tau_ankle_angle_l	/forceset/tau_subtalar_angle_l	/forceset/tau_lumbar_extension	lambda_cid13_p0	lambda_cid13_p1	lambda_cid13_p2	lambda_cid13_p3	lambda_cid13_p4	lambda_cid13_p5	lambda_cid14_p0	/jointset/ground_pelvis/pelvis_tilt/accel	/jointset/ground_pelvis/pelvis_tx/accel	/jointset/ground_pelvis/pelvis_ty/accel	/jointset/hip_l/hip_flexion_l/accel	/jointset/hip_l/hip_adduction_l/accel	/jointset/hip_l/hip_rotation_l/accel	/jointset/back/lumbar_extension/accel	/jointset/patellofemoral_l/patellar_flexion_l/accel	/jointset/knee_l/knee_flexion_l/accel	/jointset/knee_l/knee_adduction_l/accel	/jointset/knee_l/knee_rotation_l/accel	/jointset/ankle_l/ankle_angle_l/accel	/jointset/subtalar_l/subtalar_angle_l/accel	gamma_cid13_p0	gamma_cid13_p1	gamma_cid13_p2	gamma_cid13_p3	gamma_cid13_p4	gamma_cid13_p5	gamma_cid14_p0
0	0.05004527108694781	0.1068649584257453	0.9039676851550179	0.1266922784136757	-0.3608001257018211	-0.2415017082026166	-0.2144969558742783	0.2051545070141877	0.2051545070141877	-0.1548221051424399	-0.1715572895362949	0.09024313228550125	0.08925555930473693	0	0	0	0	0	0	0	0	0	0	0	0	0	0.1141535350838048	-0.04921425542352396	-0.006428293888649035	-0.2100814896633777	0.09029714946151959	-0.06439013043278836	-0.05318876812065793	-2.288666944801184	26.61240704677374	-2.521458799395644	20.98183994976322	-450.6330801753614	-60.19379537481548	-26.49698433015716	-6.12322341145365	-2.557674583243238	-0.8662594011999397	14.40750055669883	-0.008659391692124423	2.516955524978362	-3.964310295420621	7.144433833338636	7.144433833338633	1.793850609106431	-0.3629121081638519	-0.4725177443524893	-0.1866496836295229	1.421348279151849e-08	2.063210516291943e-07	8.743470728031275e-09	3.65374561877616e-09	6.422696724550237e-08	6.598513696887159e-08	2.172887823248308e-08
0.01	0.04974857064894508	0.1067389557359049	0.9039256413721743	0.127394817321092	-0.360799267818363	-0.2413729360577887	-0.2146996379784224	0.2055023273305282	0.2055023273305283	-0.1547325585617814	-0.1715684994992634	0.09021899569921317	0.08924743581503577	-0.0591124408668128	-0.02504805495286989	-0.008379876315859517	0.1398889111545625	0.0002380666359774417	0.02561910967131774	-0.04025286953434733	0.06926254287115699	0.06926254287115692	0.01796144247387524	-0.002212034593095006	-0.004736305459521296	-0.00152260848529828	0.1124096075097009	-0.05885722130036213	-0.006233938952076684	-0.20996785934253	0.08928002663978936	-0.05531000208755044	-0.05144629759758933	-2.029944288514215	22.55237915743193	-1.792819385637386	19.58244682774938	-450.9169033964461	-68.60717470011876	-26.49660579473374	-5.771108891453249	-2.455497768276845	-0.819506863459153	13.68675515814921	0.04998089002384466	2.564095068083214	-4.013242588274268	6.771932108685713	6.771932108685704	1.805144477654768	-0.1458580451841276	-0.4605264433774887	-0.119786896427273	9.751197201341494e-09	2.730381544564948e-07	-7.153545265638068e-09	1.840207878417171e-08	-8.692141006416752e-08	5.288397076633625e-08	4.043331579076984e-08
0.02	0.04886757490884262	0.1063670471331423	0.9038006678028362	0.1294776790927168	-0.3607940410287889	-0.2409920315402725	-0.2152963422390763	0.2065337265945166	0.2065337265945166	-0.1544618268741588	-0.1716009315902232	0.09015022815900475	0.08922714214739218	-0.1168590604199519	-0.04918118258445913	-0.01658595729892441	0.2760645728416948	0.0008737812232015493	0.05042647453762484	-0.07880443130199397	0.1367157895295733	0.1367157895295733	0.03623702139281838	-0.004244425598262111	-0.008926190784064153	-0.002434035588488256	0.1106656799355968	-0.06850018717720038	-0.006039584015504435	-0.2098542290216825	0.08826290381805911	-0.04622987374231261	-0.04970382707452079	-1.739200982775012	18.49246175242849	-1.070729410069492	18.26744351384711	-450.5511641727724	-76.89018471871462	-26.49528409959865	-5.850059148718919	-2.374689118987106	-0.8315003346410165	13.66485066321278	0.07087019855720875	2.354606563976234	-3.624048742080486	6.782574590790492	6.78257459079052	1.856677898120008	-0.3269833905782717	-0.3632337173568009	-0.06441340720786207	5.288911611164495e-09	3.397552572837954e-07	-2.305056125930741e-08	3.315041194956727e-08	-2.380697873738374e-07	3.978280456380091e-08	5.91377533490566e-08
0.03	0.04741547454543127	0.1057577564342262	0.9035941385328329	0.1329049698003713	-0.3607813362969967	-0.2403669796940553	-0.2162695939012329	0.2082307779698865	0.2082307779698866	-0.1540086664295621	-0.1716530911548672	0.09004122557738817	0.08919951546262915	-0.1733197133788034	-0.07258406215950974	-0.02471933950982279	0.4088021498057661	0.001641564442808203	0.07454332503249331	-0.1155776288912031	0.2023566476513452	0.2023566476513451	0.05422817842850836	-0.006094379887537008	-0.01290203622615554	-0.003127176129857763	0.1068549744510355	-0.06437558474260312	-0.005457526483027913	-0.2063766794826592	0.08582204219673113	-0.04822033803820606	-0.04676863879933379	-2.574274013817536	19.42259355017546	-1.127018833864746	18.35837369914759	-449.7494316494698	-74.18898953786289	-26.4927981553693	-5.507867294068355	-2.309146431205996	-0.8042218101877995	12.98950087104309	0.0758404035784046	2.434153085579391	-3.66371443162571	6.404153835786242	6.404153835786221	1.745359191898976	-0.1000477424262432	-0.4189026338467033	-0.07719659332925033	4.079079620361728e-09	3.98371725471642e-07	-1.009233623669516e-08	4.047423869183173e-08	-3.346958882705496e-07	2.675493789294815e-08	7.004679266923061e-08
0.04	0.0454060078675114	0.1049172251286713	0.9033062825115461	0.1376418942092743	-0.3607617321290253	-0.2395019735842221	-0.2176025293721384	0.2105741004090573	0.2105741004090574	-0.1533805894974875	-0.1717209595212688	0.0898916360061084	0.08916387092930689	-0.2283323233216612	-0.09542930391223818	-0.03285130755566247	0.5379913130913887	0.00225366845905539	0.09841732726085134	-0.1507411930517904	0.2659700022897452	0.2659700022897451	0.07122031888841726	-0.007386185949779585	-0.01704358871670277	-0.004037605300337475	0.1030442689664742	-0.06025098230800586	-0.004875468950551454	-0.202899129943636	0.08338118057540324	-0.0502108023340995	-0.04383345052414681	-3.380353528174475	20.35312350207263	-1.189626363659422	18.52726338667252	-448.3592458259225	-71.36398013988594	-26.48872642455121	-5.560450545520181	-2.263161554522651	-0.8312175016292256	12.95516792752302	0.03973435788532447	2.306036910674151	-3.302122056356145	6.377073894116104	6.377073894116134	1.656874582963749	-0.2153537451719981	-0.3963751270479701	-0.1078711330299028	2.93630852851513e-09	4.568211702648605e-07	3.460842208933209e-09	4.76449828274337e-08	-4.30197818519572e-07	1.372858255264555e-08	8.079510212882498e-08
